<svg width="23" height="23" viewBox="0 0 23 23" fill="none" xmlns="http://www.w3.org/2000/svg">
<path fill-rule="evenodd" clip-rule="evenodd" d="M11.25 2.8125C7.36043 2.8125 3.75 5.37559 3.75 9.375C3.75 10.8472 4.11414 11.9333 4.76486 12.8019C5.42815 13.6873 6.44762 14.4246 7.89026 15.0851L8.65556 15.4355L8.38939 16.234C8.00746 17.3798 7.35935 18.4323 6.70458 19.2978C8.96688 18.5872 11.9219 17.4878 14.0112 16.095C16.0829 14.7138 17.2471 13.6269 17.9054 12.6141C18.5398 11.638 18.75 10.6603 18.75 9.375C18.75 5.37559 15.1396 2.8125 11.25 2.8125ZM1.875 9.375C1.875 3.99941 6.70207 0.9375 11.25 0.9375C15.7979 0.9375 20.625 3.99941 20.625 9.375C20.625 10.9022 20.3665 12.2682 19.4774 13.6359C18.6123 14.9669 17.1983 16.2237 15.0513 17.655C12.2607 19.5154 8.21802 20.8343 5.90411 21.4951C5.14373 21.7122 4.53801 21.2661 4.27727 20.8013C4.02045 20.3436 3.95707 19.6363 4.44763 19.0888C5.10412 18.3561 5.82378 17.4124 6.30577 16.3942C5.06282 15.7351 4.02493 14.9415 3.26427 13.9261C2.33236 12.6822 1.875 11.184 1.875 9.375Z" fill="#FCFCFD"/>
<path d="M8.4375 9.375C8.4375 10.1517 7.8079 10.7812 7.03125 10.7812C6.2546 10.7812 5.625 10.1517 5.625 9.375C5.625 8.59835 6.2546 7.96875 7.03125 7.96875C7.8079 7.96875 8.4375 8.59835 8.4375 9.375Z" fill="#FCFCFD"/>
<path d="M12.654 9.375C12.654 10.1517 12.0244 10.7812 11.2478 10.7812C10.4711 10.7812 9.84155 10.1517 9.84155 9.375C9.84155 8.59835 10.4711 7.96875 11.2478 7.96875C12.0244 7.96875 12.654 8.59835 12.654 9.375Z" fill="#FCFCFD"/>
<path d="M15.4688 10.7812C16.2454 10.7812 16.875 10.1517 16.875 9.375C16.875 8.59835 16.2454 7.96875 15.4688 7.96875C14.6921 7.96875 14.0625 8.59835 14.0625 9.375C14.0625 10.1517 14.6921 10.7812 15.4688 10.7812Z" fill="#FCFCFD"/>
</svg>
