<svg width="42" height="41" viewBox="0 0 42 41" fill="none" xmlns="http://www.w3.org/2000/svg">
<path fill-rule="evenodd" clip-rule="evenodd" d="M21.1458 39.2917C31.5257 39.2917 39.9405 30.8783 39.9405 20.5C39.9405 10.1217 31.5257 1.70834 21.1458 1.70834C10.7657 1.70834 2.35107 10.1217 2.35107 20.5C2.35107 30.8783 10.7657 39.2917 21.1458 39.2917ZM9.43131 30.4427C7.15396 27.763 5.77996 24.292 5.77996 20.5V20.4963C11.9416 20.4348 17.0035 19.6182 21.5596 18.0706C21.9433 18.895 22.3157 19.7371 22.676 20.5964C22.0949 20.7889 21.5234 21.0038 20.9609 21.2406C16.433 23.146 12.6119 26.4129 9.43131 30.4427ZM11.9298 32.7944C14.4973 34.7215 17.6882 35.8634 21.1458 35.8634C23.2282 35.8634 25.2138 35.4491 27.0249 34.6987C26.2149 30.8129 25.1644 27.1745 23.9248 23.7829C23.3675 23.9618 22.8214 24.1646 22.2866 24.3895C18.3368 26.0519 14.8896 28.9817 11.9298 32.7944ZM27.2838 23.0224C28.4038 26.1408 29.3691 29.4515 30.145 32.9541C33.188 30.7522 35.3922 27.4627 36.187 23.6558C32.9596 22.8215 30 22.6532 27.2838 23.0224ZM26.0281 19.7589C29.2685 19.2037 32.7636 19.3156 36.5091 20.2151C36.4511 17.0392 35.4296 14.0987 33.7244 11.6737C30.7751 13.7574 27.8565 15.4804 24.7528 16.8339C25.193 17.7873 25.6184 18.7625 26.0281 19.7589ZM20.0278 14.9795C16.0154 16.2878 11.5613 16.9888 6.16332 17.0745C7.233 12.378 10.4549 8.50008 14.7369 6.53269C16.6169 9.07574 18.4005 11.8911 20.0278 14.9795ZM23.2477 13.7627C26.0795 12.5418 28.7433 10.9861 31.4456 9.099C28.7205 6.63636 25.1084 5.13668 21.1458 5.13668C20.123 5.13668 19.1236 5.23658 18.1567 5.42718C19.9673 7.9666 21.6804 10.7453 23.2477 13.7627Z" fill="#0F0F0F"/>
</svg>
