<svg width="41" height="41" viewBox="0 0 41 41" fill="none" xmlns="http://www.w3.org/2000/svg">
<path fill-rule="evenodd" clip-rule="evenodd" d="M20.4968 30.75C26.1586 30.75 30.7484 26.1609 30.7484 20.5C30.7484 14.8391 26.1586 10.25 20.4968 10.25C14.8349 10.25 10.2451 14.8391 10.2451 20.5C10.2451 26.1609 14.8349 30.75 20.4968 30.75ZM20.4968 27.3333C24.2713 27.3333 27.3312 24.2739 27.3312 20.5C27.3312 16.7261 24.2713 13.6667 20.4968 13.6667C16.7222 13.6667 13.6623 16.7261 13.6623 20.5C13.6623 24.2739 16.7222 27.3333 20.4968 27.3333Z" fill="#0F0F0F"/>
<path d="M30.7484 8.54166C29.8047 8.54166 29.0398 9.30651 29.0398 10.25C29.0398 11.1935 29.8047 11.9583 30.7484 11.9583C31.6921 11.9583 32.457 11.1935 32.457 10.25C32.457 9.30651 31.6921 8.54166 30.7484 8.54166Z" fill="#0F0F0F"/>
<path fill-rule="evenodd" clip-rule="evenodd" d="M2.81927 7.30495C1.7019 9.49754 1.7019 12.3678 1.7019 18.1083V22.8917C1.7019 28.6322 1.7019 31.5025 2.81927 33.695C3.80213 35.6237 5.37042 37.1918 7.29941 38.1744C9.49236 39.2917 12.3631 39.2917 18.1046 39.2917H22.8887C28.6301 39.2917 31.5009 39.2917 33.6937 38.1744C35.6227 37.1918 37.1911 35.6237 38.1739 33.695C39.2913 31.5025 39.2913 28.6322 39.2913 22.8917V18.1083C39.2913 12.3678 39.2913 9.49754 38.1739 7.30495C37.1911 5.37627 35.6227 3.80823 33.6937 2.82553C31.5009 1.70834 28.6301 1.70834 22.8887 1.70834H18.1046C12.3631 1.70834 9.49236 1.70834 7.29941 2.82553C5.37042 3.80823 3.80213 5.37627 2.81927 7.30495ZM22.8887 5.12501H18.1046C15.1774 5.12501 13.1876 5.12768 11.6496 5.25331C10.1514 5.37569 9.38525 5.59752 8.85079 5.86979C7.56481 6.52494 6.51928 7.5703 5.86403 8.85608C5.59171 9.39045 5.36984 10.1565 5.24744 11.6544C5.12179 13.1922 5.11912 15.1817 5.11912 18.1083V22.8917C5.11912 25.8184 5.12179 27.8078 5.24744 29.3456C5.36984 30.8436 5.59171 31.6096 5.86403 32.144C6.51928 33.4297 7.56481 34.475 8.85079 35.1302C9.38525 35.4025 10.1514 35.6244 11.6496 35.7467C13.1876 35.8723 15.1774 35.875 18.1046 35.875H22.8887C25.8158 35.875 27.8055 35.8723 29.3436 35.7467C30.8419 35.6244 31.608 35.4025 32.1425 35.1302C33.4284 34.475 34.4739 33.4297 35.1291 32.144C35.4015 31.6096 35.6234 30.8436 35.7458 29.3456C35.8714 27.8078 35.8741 25.8184 35.8741 22.8917V18.1083C35.8741 15.1817 35.8714 13.1922 35.7458 11.6544C35.6234 10.1565 35.4015 9.39045 35.1291 8.85608C34.4739 7.5703 33.4284 6.52494 32.1425 5.86979C31.608 5.59752 30.8419 5.37569 29.3436 5.25331C27.8055 5.12768 25.8158 5.12501 22.8887 5.12501Z" fill="#0F0F0F"/>
</svg>
