<svg width="24" height="24" viewBox="0 0 24 24" fill="none" xmlns="http://www.w3.org/2000/svg">
<path fill-rule="evenodd" clip-rule="evenodd" d="M19.7828 3.91834C20.1314 3.83574 20.3744 3.75453 20.5735 3.66924C20.8525 3.5497 21.0838 3.4065 21.4492 3.16533C21.7564 2.96265 22.15 2.945 22.474 3.11937C22.798 3.29375 23.0001 3.63199 23.0001 3.99995C23.0001 5.08088 22.8654 5.96682 22.5535 6.7465C22.2912 7.4023 21.9226 7.93496 21.4817 8.41977C21.2955 11.7829 20.322 14.424 18.8337 16.4249C17.2911 18.4988 15.2387 19.8269 13.0751 20.5706C10.918 21.3122 8.6387 21.4779 6.59678 21.2268C4.56824 20.9774 2.69312 20.3058 1.38613 19.2893C1.0282 19.0109 0.902389 18.5265 1.07959 18.1091C1.25678 17.6917 1.69264 17.4458 2.14152 17.51C3.42749 17.6937 4.66538 17.4013 5.68327 16.9833C5.48289 16.8742 5.29396 16.7563 5.11836 16.6347C4.19083 15.9926 3.44248 15.1209 3.10564 14.4472C2.96626 14.1685 2.96482 13.8406 3.10175 13.5607C3.17239 13.4162 3.27569 13.293 3.40111 13.1992C2.04685 12.0815 1.50007 10.5356 1.50007 9.49995C1.50007 9.19201 1.64194 8.90124 1.88467 8.71174C1.98672 8.63206 2.10182 8.57401 2.22316 8.53905C2.12182 8.24231 2.04318 7.9425 1.98324 7.65226C1.71747 6.36539 1.74106 4.91293 2.02992 3.75742C2.12878 3.362 2.45772 3.06615 2.86136 3.00962C3.26501 2.95308 3.66257 3.14718 3.86625 3.50023C4.94376 5.36791 6.93123 6.50953 8.78094 7.18577C9.65058 7.50371 10.456 7.70631 11.0597 7.83087C11.19 6.61028 11.5308 5.60369 12.0539 4.8042C12.7439 3.74941 13.7064 3.12534 14.7401 2.84707C16.5228 2.36717 18.5009 2.91391 19.7828 3.91834ZM10.7485 9.80854C10.0634 9.67097 9.12179 9.43986 8.0942 9.06417C6.73698 8.56798 5.16096 7.79427 3.8408 6.5958C3.86442 6.81634 3.89797 7.03501 3.9419 7.24775C4.16315 8.31909 4.57427 8.91908 4.94728 9.10558C5.40349 9.33369 5.61492 9.8686 5.43795 10.347C5.19835 10.9946 4.56817 11.0478 3.99558 10.9047C4.45611 11.5951 5.28385 12.2835 6.66447 12.5136C7.14065 12.593 7.49216 13.0012 7.49994 13.4839C7.50772 13.9666 7.16956 14.3859 6.69618 14.4806L5.82572 14.6547C5.95888 14.7704 6.10308 14.8839 6.25678 14.9903C6.95369 15.4728 7.65344 15.6809 8.25753 15.5299C8.70998 15.4168 9.18055 15.6314 9.3917 16.0473C9.60286 16.4631 9.49853 16.9697 9.14025 17.2682C8.49633 17.8042 7.74433 18.2342 6.99065 18.5912C6.63683 18.7588 6.24142 18.9242 5.81197 19.0698C6.14226 19.1403 6.48594 19.1981 6.84086 19.2418C8.61143 19.4595 10.5822 19.3127 12.425 18.6793C14.2614 18.048 15.959 16.9386 17.2289 15.2313C18.4971 13.5263 19.3821 11.1668 19.5008 7.963C19.5101 7.71076 19.6145 7.47139 19.793 7.2929C20.2426 6.84325 20.6142 6.32787 20.797 5.71439C20.4771 5.81412 20.1169 5.90044 19.6878 5.98246C19.3624 6.04468 19.0273 5.94165 18.793 5.70736C18.0284 4.94283 16.5165 4.44007 15.26 4.77831C14.6687 4.9375 14.1312 5.28212 13.7275 5.89915C13.3154 6.52913 13.0001 7.51054 13.0001 8.99999C13.0001 9.28297 12.8802 9.55269 12.6701 9.7423C12.1721 10.1918 11.334 9.92612 10.7485 9.80854Z" fill="#0F0F0F"/>
</svg>
